<?xml version="1.0" encoding="UTF-8" standalone="no"?>
<svg
   xmlns:dc="http://purl.org/dc/elements/1.1/"
   xmlns:cc="http://creativecommons.org/ns#"
   xmlns:rdf="http://www.w3.org/1999/02/22-rdf-syntax-ns#"
   xmlns:svg="http://www.w3.org/2000/svg"
   xmlns="http://www.w3.org/2000/svg"
   xmlns:sodipodi="http://sodipodi.sourceforge.net/DTD/sodipodi-0.dtd"
   xmlns:inkscape="http://www.inkscape.org/namespaces/inkscape"
   width="129mm"
   height="105mm"
   viewBox="0 0 129 105"
   version="1.1"
   preserveAspectRatio="xMidYMid meet"
   id="svg2"
   inkscape:version="0.48.4 r9939"
   sodipodi:docname="cam_box.svg">
  <metadata
     id="metadata21">
    <rdf:RDF>
      <cc:Work
         rdf:about="">
        <dc:format>image/svg+xml</dc:format>
        <dc:type
           rdf:resource="http://purl.org/dc/dcmitype/StillImage" />
      </cc:Work>
    </rdf:RDF>
  </metadata>
  <defs
     id="defs19" />
  <sodipodi:namedview
     pagecolor="#ffffff"
     bordercolor="#666666"
     borderopacity="1"
     objecttolerance="10"
     gridtolerance="10"
     guidetolerance="10"
     inkscape:pageopacity="0"
     inkscape:pageshadow="2"
     inkscape:window-width="1301"
     inkscape:window-height="744"
     id="namedview17"
     showgrid="false"
     inkscape:zoom="0.89707533"
     inkscape:cx="383.61309"
     inkscape:cy="206.38534"
     inkscape:window-x="65"
     inkscape:window-y="24"
     inkscape:window-maximized="1"
     inkscape:current-layer="svg2" />
  <path
     inkscape:connector-curvature="0"
     vector-effect="non-scaling-stroke"
     style="font-size:11.25px;fill:none;stroke:#ff0000;stroke-width:0.1;stroke-linecap:round"
     id="front_outsideCutPath"
     d="m 0,72.003178 0,7.681822 3,0 0,14.63 -3,0 0,7.57059 10.685,0 0,3.1732 14.63,-0.0556 0,-3.11758 10.685,-1e-5 0,-7.57059 -3,0 0,-14.63 3,0 0,-7.570593 -10.685,-0.05562 0,-3.06197 -14.63,0 0,3.117585 z"
     sodipodi:nodetypes="ccccccccccccccccccccc" />
  <path
     inkscape:connector-curvature="0"
     vector-effect="non-scaling-stroke"
     style="font-size:11.25px;fill:none;stroke:#ff0000;stroke-width:0.1;stroke-linecap:round"
     id="top_outsideCutPath"
     d="m 96,57 0,15.185 -3,0 0,14.63 3,0 0,14.63 0,0.555 7.685,0 0,3 14.63,0 0,-3 7.685,0 0,-15.185 3,0 0,-14.63 -3,0 0,-14.63 0,-0.555 -7.685,0 0,-3 -14.63,0 0,3 L 96,57 z" />
  <path
     inkscape:connector-curvature="0"
     vector-effect="non-scaling-stroke"
     style="font-size:11.25px;fill:none;stroke:#ff0000;stroke-width:0.1;stroke-linecap:round"
     id="bottom_outsideCutPath"
     d="m 96,3 0,15.185 -3,0 0,14.63 3,0 0,14.63 0,0.555 7.685,0 0,3 14.63,0 0,-3 7.685,0 0,-15.185 3,0 0,-14.63 -3,0 0,-14.63 0,-0.555 -7.685,0 0,-3 -14.63,0 0,3 L 96,3 z" />
  <g
     id="g3790"
     transform="translate(0,-10.539187)"
     style="stroke:#ff0000">
    <rect
       rx="3"
       y="26.918823"
       x="38.793686"
       height="42.054718"
       width="51.22427"
       id="rect3010"
       style="fill:none;stroke:#ff0000;stroke-width:0.14111111000000001;stroke-linecap:round;stroke-linejoin:round;stroke-miterlimit:4;stroke-opacity:1;stroke-dasharray:none;stroke-dashoffset:0" />
    <rect
       y="63.036583"
       x="57.213985"
       height="2.993504"
       width="14.559103"
       id="rect3782"
       style="fill:none;stroke:#ff0000;stroke-width:0.14111111000000001;stroke-linecap:round;stroke-linejoin:round;stroke-miterlimit:4;stroke-opacity:1;stroke-dasharray:none;stroke-dashoffset:0" />
    <rect
       style="fill:none;stroke:#ff0000;stroke-width:0.14111111000000001;stroke-linecap:round;stroke-linejoin:round;stroke-miterlimit:4;stroke-opacity:1;stroke-dasharray:none;stroke-dashoffset:0"
       id="rect3784"
       width="14.559103"
       height="2.993504"
       x="57.158371"
       y="30.030048" />
    <rect
       transform="matrix(0,1,-1,0,0,0)"
       style="fill:none;stroke:#ff0000;stroke-width:0.14111111000000001;stroke-linecap:round;stroke-linejoin:round;stroke-miterlimit:4;stroke-opacity:1;stroke-dasharray:none;stroke-dashoffset:0"
       id="rect3786"
       width="14.559103"
       height="2.993504"
       x="40.67239"
       y="-86.956917" />
    <rect
       y="-44.90472"
       x="40.67239"
       height="2.993504"
       width="14.559103"
       id="rect3788"
       style="fill:none;stroke:#ff0000;stroke-width:0.14111111000000001;stroke-linecap:round;stroke-linejoin:round;stroke-miterlimit:4;stroke-opacity:1;stroke-dasharray:none;stroke-dashoffset:0"
       transform="matrix(0,1,-1,0,0,0)" />
  </g>
  <g
     id="g3797"
     transform="translate(0,33.505176)"
     style="stroke:#ff0000">
    <rect
       style="fill:none;stroke:#ff0000;stroke-width:0.14111111000000001;stroke-linecap:round;stroke-linejoin:round;stroke-miterlimit:4;stroke-opacity:1;stroke-dasharray:none;stroke-dashoffset:0"
       id="rect3799"
       width="51.22427"
       height="42.054718"
       x="38.793686"
       y="26.918823"
       rx="3" />
    <rect
       style="fill:none;stroke:#ff0000;stroke-width:0.14111111000000001;stroke-linecap:round;stroke-linejoin:round;stroke-miterlimit:4;stroke-opacity:1;stroke-dasharray:none;stroke-dashoffset:0"
       id="rect3801"
       width="14.559103"
       height="2.993504"
       x="57.213985"
       y="63.036583" />
    <rect
       y="30.030048"
       x="57.158371"
       height="2.993504"
       width="14.559103"
       id="rect3803"
       style="fill:none;stroke:#ff0000;stroke-width:0.14111111000000001;stroke-linecap:round;stroke-linejoin:round;stroke-miterlimit:4;stroke-opacity:1;stroke-dasharray:none;stroke-dashoffset:0" />
    <rect
       y="-86.956917"
       x="40.67239"
       height="2.993504"
       width="14.559103"
       id="rect3805"
       style="fill:none;stroke:#ff0000;stroke-width:0.14111111000000001;stroke-linecap:round;stroke-linejoin:round;stroke-miterlimit:4;stroke-opacity:1;stroke-dasharray:none;stroke-dashoffset:0"
       transform="matrix(0,1,-1,0,0,0)" />
    <rect
       transform="matrix(0,1,-1,0,0,0)"
       style="fill:none;stroke:#ff0000;stroke-width:0.14111111000000001;stroke-linecap:round;stroke-linejoin:round;stroke-miterlimit:4;stroke-opacity:1;stroke-dasharray:none;stroke-dashoffset:0"
       id="rect3807"
       width="14.559103"
       height="2.993504"
       x="40.67239"
       y="-44.90472" />
  </g>
  <path
     sodipodi:nodetypes="ccccccccccccccccccccc"
     d="m 0,31.104841 0,7.681822 3,0 0,14.63 -3,0 0,7.57059 10.685,0 0,3.1732 14.63,-0.0556 0,-3.11758 10.685,-1e-5 0,-7.57059 -3,0 0,-14.63 3,0 0,-7.570593 -10.685,-0.05562 0,-3.06197 -14.63,0 0,3.117585 z"
     id="path3811"
     style="font-size:11.25px;fill:none;stroke:#ff0000;stroke-width:0.1;stroke-linecap:round"
     vector-effect="non-scaling-stroke"
     inkscape:connector-curvature="0" />
  <text
     xml:space="preserve"
     style="font-size:11.28888893px;font-style:normal;font-variant:normal;font-weight:normal;font-stretch:normal;line-height:125%;letter-spacing:0px;word-spacing:0px;fill:#000000;fill-opacity:1;stroke:none;font-family:TakaoPGothic;-inkscape-font-specification:TakaoPGothic"
     x="6.6066542"
     y="49.315346"
     id="text3813"
     sodipodi:linespacing="125%"><tspan
       sodipodi:role="line"
       id="tspan3815"
       x="6.6066542"
       y="49.315346"
       style="font-size:7.90222216px">switch</tspan></text>
  <text
     sodipodi:linespacing="125%"
     id="text3817"
     y="90.842896"
     x="10.067281"
     style="font-size:11.28888893px;font-style:normal;font-variant:normal;font-weight:normal;font-stretch:normal;line-height:125%;letter-spacing:0px;word-spacing:0px;fill:#000000;fill-opacity:1;stroke:none;font-family:TakaoPGothic;-inkscape-font-specification:TakaoPGothic"
     xml:space="preserve"><tspan
       y="90.842896"
       x="10.067281"
       id="tspan3819"
       sodipodi:role="line"
       style="font-size:7.90222216px">wire</tspan></text>
  <text
     sodipodi:linespacing="125%"
     id="text3821"
     y="84.550842"
     x="51.28022"
     style="font-size:11.28888893px;font-style:normal;font-variant:normal;font-weight:normal;font-stretch:normal;line-height:125%;letter-spacing:0px;word-spacing:0px;fill:#000000;fill-opacity:1;stroke:none;font-family:TakaoPGothic;-inkscape-font-specification:TakaoPGothic"
     xml:space="preserve"><tspan
       style="font-size:7.90222216px"
       y="84.550842"
       x="51.28022"
       id="tspan3823"
       sodipodi:role="line">camera</tspan></text>
  <text
     xml:space="preserve"
     style="font-size:11.28888893px;font-style:normal;font-variant:normal;font-weight:normal;font-stretch:normal;line-height:125%;letter-spacing:0px;word-spacing:0px;fill:#000000;fill-opacity:1;stroke:none;font-family:TakaoPGothic;-inkscape-font-specification:TakaoPGothic"
     x="103.50425"
     y="28.55158"
     id="text3825"
     sodipodi:linespacing="125%"><tspan
       sodipodi:role="line"
       id="tspan3827"
       x="103.50425"
       y="28.55158"
       style="font-size:7.90222216px">usb</tspan></text>
</svg>
