<?xml version="1.0" encoding="UTF-8" standalone="no"?>
<!-- Created with Inkscape (http://www.inkscape.org/) -->

<svg
   xmlns:dc="http://purl.org/dc/elements/1.1/"
   xmlns:cc="http://creativecommons.org/ns#"
   xmlns:rdf="http://www.w3.org/1999/02/22-rdf-syntax-ns#"
   xmlns:svg="http://www.w3.org/2000/svg"
   xmlns="http://www.w3.org/2000/svg"
   xmlns:sodipodi="http://sodipodi.sourceforge.net/DTD/sodipodi-0.dtd"
   xmlns:inkscape="http://www.inkscape.org/namespaces/inkscape"
   id="svg3125"
   version="1.1"
   inkscape:version="0.48.4 r9939"
   width="499.58139"
   height="464.1431"
   sodipodi:docname="poppet_upset.svg">
  <metadata
     id="metadata3131">
    <rdf:RDF>
      <cc:Work
         rdf:about="">
        <dc:format>image/svg+xml</dc:format>
        <dc:type
           rdf:resource="http://purl.org/dc/dcmitype/StillImage" />
        <dc:title></dc:title>
      </cc:Work>
    </rdf:RDF>
  </metadata>
  <defs
     id="defs3129" />
  <sodipodi:namedview
     pagecolor="#ffffff"
     bordercolor="#666666"
     borderopacity="1"
     objecttolerance="10"
     gridtolerance="10"
     guidetolerance="10"
     inkscape:pageopacity="0"
     inkscape:pageshadow="2"
     inkscape:window-width="1115"
     inkscape:window-height="634"
     id="namedview3127"
     showgrid="false"
     inkscape:zoom="0.4888535"
     inkscape:cx="226.49348"
     inkscape:cy="231.24571"
     inkscape:window-x="115"
     inkscape:window-y="36"
     inkscape:window-maximized="0"
     inkscape:current-layer="svg3125"
     fit-margin-top="0"
     fit-margin-left="0"
     fit-margin-right="0"
     fit-margin-bottom="0" />
  <path
     sodipodi:type="arc"
     style="fill:#b3b3b3;fill-opacity:1;stroke:none"
     id="path3166"
     sodipodi:cx="156.4886"
     sodipodi:cy="260.28012"
     sodipodi:rx="9.2052116"
     sodipodi:ry="115.57655"
     d="m 165.69381,260.28012 a 9.2052116,115.57655 0 1 1 -18.41042,0 9.2052116,115.57655 0 1 1 18.41042,0 z"
     transform="matrix(7.6666668,0,0,1,-770.73786,-3.1026059)" />
  <path
     transform="matrix(7.6666668,0,0,1,-782.73786,-3.1026059)"
     d="m 165.69381,260.28012 a 9.2052116,115.57655 0 1 1 -18.41042,0 9.2052116,115.57655 0 1 1 18.41042,0 z"
     sodipodi:ry="115.57655"
     sodipodi:rx="9.2052116"
     sodipodi:cy="260.28012"
     sodipodi:cx="156.4886"
     id="path3956"
     style="fill:#f2f2f2;fill-opacity:1;stroke:#b3b3b3;stroke-width:1.8057878;stroke-linejoin:round;stroke-miterlimit:4;stroke-dasharray:none"
     sodipodi:type="arc" />
  <path
     style="fill:#f2f2f2;stroke:#b3b3b3;stroke-width:5;stroke-linecap:butt;stroke-linejoin:round;stroke-miterlimit:4;stroke-opacity:1;stroke-dasharray:none"
     d="M 186.60423,82.278501 440.25895,49.54886 438.21335,325.70521 192.74104,389.11889 z"
     id="path3160"
     inkscape:connector-curvature="0" />
  <path
     style="fill:#ececec;stroke:#999999;stroke-width:5;stroke-linejoin:round;stroke-miterlimit:4;stroke-dasharray:none"
     d="M 200.92345,74.096091 2.5,20.910423 6.5912,254.10912 194.78664,393.21009 z"
     id="path3162"
     inkscape:connector-curvature="0"
     sodipodi:nodetypes="ccccc" />
  <path
     transform="matrix(4.1022475,0,0,0.99481352,917.40685,21.046025)"
     d="m -173.87622,317.55701 a 23.524429,127.85017 0 1 1 -47.04886,0 23.524429,127.85017 0 1 1 47.04886,0 z"
     sodipodi:ry="127.85017"
     sodipodi:rx="23.524429"
     sodipodi:cy="317.55701"
     sodipodi:cx="-197.40065"
     id="path3958"
     style="fill:#999999;fill-opacity:1;stroke:none"
     sodipodi:type="arc" />
  <path
     style="fill:#ececec;stroke:#b3b3b3;stroke-width:5;stroke-linecap:butt;stroke-linejoin:round;stroke-miterlimit:4;stroke-opacity:1;stroke-dasharray:none"
     d="M 188.64983,84.324104 438.21335,49.54886 217.28827,2.5 8.6368,25.001629 z"
     id="path3164"
     inkscape:connector-curvature="0" />
  <path
     sodipodi:type="arc"
     style="fill:#ececec;fill-opacity:1;stroke:#999999;stroke-width:2.47507429;stroke-linejoin:round;stroke-miterlimit:4;stroke-dasharray:none"
     id="path3150"
     sodipodi:cx="-197.40065"
     sodipodi:cy="317.55701"
     sodipodi:rx="23.524429"
     sodipodi:ry="127.85017"
     d="m -173.87622,317.55701 a 23.524429,127.85017 0 1 1 -47.04886,0 23.524429,127.85017 0 1 1 47.04886,0 z"
     transform="matrix(4.1022475,0,0,0.99481352,909.31564,15.046025)" />
  <path
     inkscape:connector-curvature="0"
     id="path80"
     style="fill:#221a13;fill-opacity:1;fill-rule:nonzero;stroke:none"
     d="m 338.36377,315.70199 -9.0721,-0.40547 c -15.20679,-0.67979 -26.92712,-14.8532 -26.17585,-31.6592 l 0.448,-10.02298 c 0.75127,-16.80602 13.68958,-29.87915 28.89635,-29.19936 l 9.0721,0.40558 c 15.20678,0.67978 26.92703,14.85518 26.17576,31.6612 l -0.448,10.02299 c -0.75127,16.806 -13.68949,29.87713 -28.89626,29.19734" />
  <path
     inkscape:connector-curvature="0"
     id="path82"
     style="fill:#f0431d;fill-opacity:1;fill-rule:nonzero;stroke:none"
     d="m 335.47067,278.74562 c -13.25937,-0.59269 -24.92186,3.72943 -31.0254,15.74837 3.42709,11.65448 13.07844,20.27643 24.8464,20.80248 l 9.07211,0.40547 c 11.76794,0.52608 22.15009,-7.20034 26.6034,-18.50255 -5.00679,-12.51559 -16.23713,-17.86111 -29.49651,-18.45382" />
  <path
     inkscape:connector-curvature="0"
     id="path84"
     style="fill:#f0431d;fill-opacity:1;fill-rule:nonzero;stroke:none"
     d="m 426.29294,149.95458 c -1.14658,-15.54505 -13.58781,-27.72307 -27.78427,-27.20058 -6.25053,0.22918 -11.79351,2.88707 -15.95104,7.10997 -0.0782,-0.10272 -0.14065,-0.2175 -0.22107,-0.32165 -9.40519,-12.15117 -25.69951,-14.12972 -36.3975,-4.42018 -10.69621,9.7091 -11.74358,27.42965 -2.33662,39.58037 l 35.62961,46.03547 39.12002,-38.52974 c 5.39344,-5.37342 8.59252,-13.45364 7.94094,-22.25368" />
  <path
     inkscape:connector-curvature="0"
     id="path86"
     style="fill:#f0431d;fill-opacity:1;fill-rule:nonzero;stroke:none"
     d="m 217.7044,202.18975 c -6.31318,-14.25121 -1.08142,-30.85495 11.68581,-37.08476 5.62084,-2.74367 11.76402,-3.01226 17.41933,-1.2467 0.0206,-0.12745 0.0234,-0.25858 0.0452,-0.38834 2.5667,-15.14919 16.00724,-24.57401 30.01688,-21.0518 14.00963,3.52221 23.28488,18.65775 20.7164,33.80738 l -9.7303,57.39459 -52.65992,-15.54602 c -7.2911,-2.19692 -13.91898,-7.81627 -17.49342,-15.88435" />
</svg>
