<?xml version="1.0" encoding="UTF-8" standalone="no"?>
<!-- Created with Inkscape (http://www.inkscape.org/) -->

<svg
   xmlns:dc="http://purl.org/dc/elements/1.1/"
   xmlns:cc="http://creativecommons.org/ns#"
   xmlns:rdf="http://www.w3.org/1999/02/22-rdf-syntax-ns#"
   xmlns:svg="http://www.w3.org/2000/svg"
   xmlns="http://www.w3.org/2000/svg"
   xmlns:sodipodi="http://sodipodi.sourceforge.net/DTD/sodipodi-0.dtd"
   xmlns:inkscape="http://www.inkscape.org/namespaces/inkscape"
   id="svg3125"
   version="1.1"
   inkscape:version="0.48.4 r9939"
   width="499.58139"
   height="464.1431"
   sodipodi:docname="poppet_uoset.svg">
  <metadata
     id="metadata3131">
    <rdf:RDF>
      <cc:Work
         rdf:about="">
        <dc:format>image/svg+xml</dc:format>
        <dc:type
           rdf:resource="http://purl.org/dc/dcmitype/StillImage" />
        <dc:title></dc:title>
      </cc:Work>
    </rdf:RDF>
  </metadata>
  <defs
     id="defs3129" />
  <sodipodi:namedview
     pagecolor="#ffffff"
     bordercolor="#666666"
     borderopacity="1"
     objecttolerance="10"
     gridtolerance="10"
     guidetolerance="10"
     inkscape:pageopacity="0"
     inkscape:pageshadow="2"
     inkscape:window-width="1115"
     inkscape:window-height="634"
     id="namedview3127"
     showgrid="false"
     inkscape:zoom="0.4888535"
     inkscape:cx="226.49348"
     inkscape:cy="231.24571"
     inkscape:window-x="115"
     inkscape:window-y="36"
     inkscape:window-maximized="0"
     inkscape:current-layer="svg3125"
     fit-margin-top="0"
     fit-margin-left="0"
     fit-margin-right="0"
     fit-margin-bottom="0" />
  <path
     sodipodi:type="arc"
     style="fill:#b3b3b3;fill-opacity:1;stroke:none"
     id="path3166"
     sodipodi:cx="156.4886"
     sodipodi:cy="260.28012"
     sodipodi:rx="9.2052116"
     sodipodi:ry="115.57655"
     d="m 165.69381,260.28012 a 9.2052116,115.57655 0 1 1 -18.41042,0 9.2052116,115.57655 0 1 1 18.41042,0 z"
     transform="matrix(7.6666668,0,0,1,-770.73786,-3.1026059)" />
  <path
     transform="matrix(7.6666668,0,0,1,-782.73786,-3.1026059)"
     d="m 165.69381,260.28012 a 9.2052116,115.57655 0 1 1 -18.41042,0 9.2052116,115.57655 0 1 1 18.41042,0 z"
     sodipodi:ry="115.57655"
     sodipodi:rx="9.2052116"
     sodipodi:cy="260.28012"
     sodipodi:cx="156.4886"
     id="path3956"
     style="fill:#f2f2f2;fill-opacity:1;stroke:#b3b3b3;stroke-width:1.8057878;stroke-linejoin:round;stroke-miterlimit:4;stroke-dasharray:none"
     sodipodi:type="arc" />
  <path
     style="fill:#f2f2f2;stroke:#b3b3b3;stroke-width:5;stroke-linecap:butt;stroke-linejoin:round;stroke-miterlimit:4;stroke-opacity:1;stroke-dasharray:none"
     d="M 186.60423,82.278501 440.25895,49.54886 438.21335,325.70521 192.74104,389.11889 z"
     id="path3160"
     inkscape:connector-curvature="0" />
  <path
     style="fill:#ececec;stroke:#999999;stroke-width:5;stroke-linejoin:round;stroke-miterlimit:4;stroke-dasharray:none"
     d="M 200.92345,74.096091 2.5,20.910423 6.5912,254.10912 194.78664,393.21009 z"
     id="path3162"
     inkscape:connector-curvature="0"
     sodipodi:nodetypes="ccccc" />
  <path
     transform="matrix(4.1022475,0,0,0.99481352,917.40685,21.046025)"
     d="m -173.87622,317.55701 a 23.524429,127.85017 0 1 1 -47.04886,0 23.524429,127.85017 0 1 1 47.04886,0 z"
     sodipodi:ry="127.85017"
     sodipodi:rx="23.524429"
     sodipodi:cy="317.55701"
     sodipodi:cx="-197.40065"
     id="path3958"
     style="fill:#999999;fill-opacity:1;stroke:none"
     sodipodi:type="arc" />
  <path
     style="fill:#ececec;stroke:#b3b3b3;stroke-width:5;stroke-linecap:butt;stroke-linejoin:round;stroke-miterlimit:4;stroke-opacity:1;stroke-dasharray:none"
     d="M 188.64983,84.324104 438.21335,49.54886 217.28827,2.5 8.6368,25.001629 z"
     id="path3164"
     inkscape:connector-curvature="0" />
  <path
     sodipodi:type="arc"
     style="fill:#ececec;fill-opacity:1;stroke:#999999;stroke-width:2.47507429;stroke-linejoin:round;stroke-miterlimit:4;stroke-dasharray:none"
     id="path3150"
     sodipodi:cx="-197.40065"
     sodipodi:cy="317.55701"
     sodipodi:rx="23.524429"
     sodipodi:ry="127.85017"
     d="m -173.87622,317.55701 a 23.524429,127.85017 0 1 1 -47.04886,0 23.524429,127.85017 0 1 1 47.04886,0 z"
     transform="matrix(4.1022475,0,0,0.99481352,909.31564,15.046025)" />
  <path
     inkscape:connector-curvature="0"
     id="path148"
     style="fill:#221a13;fill-opacity:1;fill-rule:nonzero;stroke:none"
     d="m 244.50171,217.98862 c -2.64093,0.31617 -5.26091,-1.08703 -6.77196,-3.98523 -2.25313,-4.32321 -1.18012,-10.31637 2.3917,-13.39266 l 26.14319,-22.51908 -27.34167,-16.11838 c -3.73552,-2.20144 -5.17102,-7.89429 -3.20177,-12.72301 1.96738,-4.82604 6.59293,-6.95482 10.32869,-4.74606 l 39.06185,23.02071 c 2.41533,1.42281 3.97,4.40382 4.07604,7.8224 0.10597,3.41614 -1.25296,6.74597 -3.56255,8.73199 l -37.34987,32.17113 c -1.17657,1.01639 -2.47655,1.58291 -3.77365,1.73819" />
  <path
     inkscape:connector-curvature="0"
     id="path150"
     style="fill:#221a13;fill-opacity:1;fill-rule:nonzero;stroke:none"
     d="m 400.34214,199.33153 c -1.29709,0.15528 -2.62246,-0.0969 -3.85314,-0.82512 l -39.05997,-23.02342 c -2.41721,-1.42011 -3.97188,-4.40113 -4.07785,-7.81726 -0.10604,-3.41859 1.25289,-6.74841 3.56436,-8.73711 l 37.34801,-32.16844 c 3.58133,-3.08476 8.29644,-2.07424 10.54559,2.24701 2.25314,4.32322 1.18012,10.31639 -2.3917,13.39267 l -26.1431,22.52152 27.34158,16.11593 c 3.73552,2.20145 5.17102,7.8943 3.20177,12.72301 -1.32074,3.23723 -3.8346,5.25505 -6.47555,5.57121" />
  <path
     inkscape:connector-curvature="0"
     id="path152"
     style="fill:#333333;fill-opacity:1;fill-rule:nonzero;stroke:#000000;stroke-opacity:1;stroke-width:6.25;stroke-miterlimit:4;stroke-dasharray:none"
     d="m 281.34425,311.95236 c -1.77231,0.21219 -3.57809,-0.33957 -5.07188,-1.73574 l -17.62817,-16.43506 -16.48193,20.5187 c -3.07693,3.84365 -7.92047,3.98575 -10.80784,0.32786 -2.88757,-3.6652 -2.7282,-9.74463 0.35485,-13.57924 l 21.31706,-26.54163 c 2.77425,-3.45523 7.03752,-3.96562 10.00479,-1.19775 l 22.79784,21.26022 c 3.2992,3.07052 3.83121,9.06719 1.19152,13.39411 -1.44181,2.35904 -3.53583,3.7323 -5.67624,3.98853" />
  <path
     inkscape:connector-curvature="0"
     id="path154"
     style="fill:#333333;fill-opacity:1;fill-rule:nonzero;stroke:#000000;stroke-opacity:1;stroke-width:6.25;stroke-miterlimit:4;stroke-dasharray:none"
     d="m 325.45915,306.67098 c -1.77231,0.21217 -3.57808,-0.33959 -5.07188,-1.73576 l -17.62819,-16.43506 -16.48192,20.5187 c -3.07886,3.8439 -7.92047,3.98574 -10.80782,0.32785 -2.88759,-3.66519 -2.7282,-9.74463 0.35484,-13.57923 l 21.31707,-26.54161 c 2.77422,-3.45524 7.03751,-3.96564 10.00283,-1.19753 l 22.79978,21.25997 c 3.29725,3.07076 3.8312,9.0672 1.19154,13.39411 -1.44182,2.35905 -3.53585,3.7323 -5.67625,3.98856" />
  <path
     inkscape:connector-curvature="0"
     id="path156"
     style="fill:#333333;fill-opacity:1;fill-rule:nonzero;stroke:#000000;stroke-opacity:1;stroke-width:6.25;stroke-miterlimit:4;stroke-dasharray:none;stroke-linejoin:round"
     d="m 369.57405,301.38958 c -1.77231,0.21217 -3.57809,-0.33958 -5.07188,-1.73575 l -17.62819,-16.43507 -16.48193,20.51871 c -3.07692,3.84365 -7.92047,3.98573 -10.80782,0.32785 -2.88758,-3.66521 -2.7282,-9.74463 0.35486,-13.57924 l 21.31704,-26.54161 c 2.77424,-3.45525 7.03751,-3.96564 10.00284,-1.19753 l 22.7998,21.25997 c 3.29724,3.07076 3.8312,9.0672 1.19151,13.39411 -1.4418,2.35904 -3.53584,3.73231 -5.67623,3.98856" />
  <path
     inkscape:connector-curvature="0"
     id="path158"
     style="fill:#333333;fill-opacity:1;fill-rule:nonzero;stroke:#000000;stroke-opacity:1;stroke-width:6.25;stroke-miterlimit:4;stroke-dasharray:none"
     d="m 413.69282,296.1077 c -1.77424,0.21242 -3.57808,-0.33957 -5.07381,-1.73551 l -17.62819,-16.43505 -16.48386,20.51892 c -3.07888,3.84389 -7.92049,3.98576 -10.80806,0.32055 -2.88737,-3.65789 -2.72798,-9.73732 0.35508,-13.57193 l 21.31899,-26.54184 c 2.77424,-3.45525 7.03753,-3.96564 10.00478,-1.19777 l 22.79785,21.26021 c 3.29921,3.07053 3.8312,9.06719 1.19154,13.3941 -1.44183,2.35906 -3.53585,3.73231 -5.67432,3.98832" />
  <path
     inkscape:connector-curvature="0"
     id="path160"
     style="fill:#55c5ec;fill-opacity:1;fill-rule:nonzero;stroke:none"
     d="m 215.53291,255.52169 13.97584,-51.21017 17.03954,47.49703 c 3.69785,10.31334 -0.13946,22.91791 -8.57428,28.15628 -8.43296,5.23571 -18.27013,1.12342 -21.96798,-9.18992 -1.75677,-4.89623 -1.80098,-10.35456 -0.47312,-15.25322" />
</svg>
