<?xml version="1.0" encoding="UTF-8" standalone="no"?>
<!-- Created with Inkscape (http://www.inkscape.org/) -->

<svg
   xmlns:dc="http://purl.org/dc/elements/1.1/"
   xmlns:cc="http://creativecommons.org/ns#"
   xmlns:rdf="http://www.w3.org/1999/02/22-rdf-syntax-ns#"
   xmlns:svg="http://www.w3.org/2000/svg"
   xmlns="http://www.w3.org/2000/svg"
   xmlns:sodipodi="http://sodipodi.sourceforge.net/DTD/sodipodi-0.dtd"
   xmlns:inkscape="http://www.inkscape.org/namespaces/inkscape"
   id="svg3125"
   version="1.1"
   inkscape:version="0.48.4 r9939"
   width="499.58139"
   height="464.1431"
   sodipodi:docname="poppet_lol.svg">
  <metadata
     id="metadata3131">
    <rdf:RDF>
      <cc:Work
         rdf:about="">
        <dc:format>image/svg+xml</dc:format>
        <dc:type
           rdf:resource="http://purl.org/dc/dcmitype/StillImage" />
        <dc:title></dc:title>
      </cc:Work>
    </rdf:RDF>
  </metadata>
  <defs
     id="defs3129" />
  <sodipodi:namedview
     pagecolor="#ffffff"
     bordercolor="#666666"
     borderopacity="1"
     objecttolerance="10"
     gridtolerance="10"
     guidetolerance="10"
     inkscape:pageopacity="0"
     inkscape:pageshadow="2"
     inkscape:window-width="1115"
     inkscape:window-height="634"
     id="namedview3127"
     showgrid="false"
     inkscape:zoom="0.4888535"
     inkscape:cx="226.49348"
     inkscape:cy="231.24571"
     inkscape:window-x="115"
     inkscape:window-y="36"
     inkscape:window-maximized="0"
     inkscape:current-layer="svg3125"
     fit-margin-top="0"
     fit-margin-left="0"
     fit-margin-right="0"
     fit-margin-bottom="0" />
  <path
     sodipodi:type="arc"
     style="fill:#b3b3b3;fill-opacity:1;stroke:none"
     id="path3166"
     sodipodi:cx="156.4886"
     sodipodi:cy="260.28012"
     sodipodi:rx="9.2052116"
     sodipodi:ry="115.57655"
     d="m 165.69381,260.28012 a 9.2052116,115.57655 0 1 1 -18.41042,0 9.2052116,115.57655 0 1 1 18.41042,0 z"
     transform="matrix(7.6666668,0,0,1,-770.73786,-3.1026059)" />
  <path
     transform="matrix(7.6666668,0,0,1,-782.73786,-3.1026059)"
     d="m 165.69381,260.28012 a 9.2052116,115.57655 0 1 1 -18.41042,0 9.2052116,115.57655 0 1 1 18.41042,0 z"
     sodipodi:ry="115.57655"
     sodipodi:rx="9.2052116"
     sodipodi:cy="260.28012"
     sodipodi:cx="156.4886"
     id="path3956"
     style="fill:#f2f2f2;fill-opacity:1;stroke:#b3b3b3;stroke-width:1.8057878;stroke-linejoin:round;stroke-miterlimit:4;stroke-dasharray:none"
     sodipodi:type="arc" />
  <path
     style="fill:#f2f2f2;stroke:#b3b3b3;stroke-width:5;stroke-linecap:butt;stroke-linejoin:round;stroke-miterlimit:4;stroke-opacity:1;stroke-dasharray:none"
     d="M 186.60423,82.278501 440.25895,49.54886 438.21335,325.70521 192.74104,389.11889 z"
     id="path3160"
     inkscape:connector-curvature="0" />
  <path
     style="fill:#ececec;stroke:#999999;stroke-width:5;stroke-linejoin:round;stroke-miterlimit:4;stroke-dasharray:none"
     d="M 200.92345,74.096091 2.5,20.910423 6.5912,254.10912 194.78664,393.21009 z"
     id="path3162"
     inkscape:connector-curvature="0"
     sodipodi:nodetypes="ccccc" />
  <path
     transform="matrix(4.1022475,0,0,0.99481352,917.40685,21.046025)"
     d="m -173.87622,317.55701 a 23.524429,127.85017 0 1 1 -47.04886,0 23.524429,127.85017 0 1 1 47.04886,0 z"
     sodipodi:ry="127.85017"
     sodipodi:rx="23.524429"
     sodipodi:cy="317.55701"
     sodipodi:cx="-197.40065"
     id="path3958"
     style="fill:#999999;fill-opacity:1;stroke:none"
     sodipodi:type="arc" />
  <path
     style="fill:#ececec;stroke:#b3b3b3;stroke-width:5;stroke-linecap:butt;stroke-linejoin:round;stroke-miterlimit:4;stroke-opacity:1;stroke-dasharray:none"
     d="M 188.64983,84.324104 438.21335,49.54886 217.28827,2.5 8.6368,25.001629 z"
     id="path3164"
     inkscape:connector-curvature="0" />
  <path
     sodipodi:type="arc"
     style="fill:#ececec;fill-opacity:1;stroke:#999999;stroke-width:2.47507429;stroke-linejoin:round;stroke-miterlimit:4;stroke-dasharray:none"
     id="path3150"
     sodipodi:cx="-197.40065"
     sodipodi:cy="317.55701"
     sodipodi:rx="23.524429"
     sodipodi:ry="127.85017"
     d="m -173.87622,317.55701 a 23.524429,127.85017 0 1 1 -47.04886,0 23.524429,127.85017 0 1 1 47.04886,0 z"
     transform="matrix(4.1022475,0,0,0.99481352,909.31564,15.046025)" />
  <path
     inkscape:connector-curvature="0"
     id="path56"
     style="fill:#221a13;fill-opacity:1;fill-rule:nonzero;stroke:none"
     d="m 428.77192,259.94673 c 1.25598,1.47934 -27.82675,-60.61997 -108.2059,-37.20297 -78.8269,28.21237 -66.00154,95.58153 -65.85091,93.64605 52.75439,-32.30404 112.39874,-51.64548 174.05681,-56.44308" />
  <path
     inkscape:connector-curvature="0"
     id="path66"
     style="fill:#221a13;fill-opacity:1;fill-rule:nonzero;stroke:none"
     d="m 267.03892,206.41149 c -2.41241,0.45269 -4.99171,-0.35699 -6.70564,-2.3555 -2.55583,-2.98125 -2.21115,-7.46506 0.7646,-10.01925 l 21.77969,-18.69875 -27.07658,-9.52916 c -3.69929,-1.30163 -5.64603,-5.35545 -4.34486,-9.06046 1.30573,-3.70034 5.35435,-5.65052 9.05464,-4.34355 l 38.68109,13.61172 c 2.39362,0.84083 4.15694,2.89643 4.62526,5.3922 0.46866,2.49756 -0.42949,5.05257 -2.35545,6.70395 l -31.11506,26.70879 c -0.97987,0.8436 -2.12461,1.36801 -3.30769,1.59001" />
  <path
     inkscape:connector-curvature="0"
     id="path68"
     style="fill:#221a13;fill-opacity:1;fill-rule:nonzero;stroke:none"
     d="m 409.39233,179.69925 c -1.18308,0.22201 -2.43828,0.14794 -3.65733,-0.28305 l -38.68288,-13.61138 c -2.39183,-0.84116 -4.15515,-2.89676 -4.62381,-5.39432 -0.46832,-2.49577 0.42983,-5.05078 2.354,-6.70183 l 31.11684,-26.70912 c 2.98365,-2.5612 7.46207,-2.21109 10.01156,0.76583 2.55761,2.98092 2.21293,7.46472 -0.76282,10.0189 l -21.7818,18.69731 27.07869,9.5306 c 3.69929,1.30164 5.64603,5.35546 4.34308,9.06081 -0.87104,2.48357 -2.98135,4.17324 -5.39553,4.62625" />
</svg>
