<?xml version="1.0" encoding="UTF-8" standalone="no"?>
<!-- Created with Inkscape (http://www.inkscape.org/) -->

<svg
   xmlns:dc="http://purl.org/dc/elements/1.1/"
   xmlns:cc="http://creativecommons.org/ns#"
   xmlns:rdf="http://www.w3.org/1999/02/22-rdf-syntax-ns#"
   xmlns:svg="http://www.w3.org/2000/svg"
   xmlns="http://www.w3.org/2000/svg"
   xmlns:sodipodi="http://sodipodi.sourceforge.net/DTD/sodipodi-0.dtd"
   xmlns:inkscape="http://www.inkscape.org/namespaces/inkscape"
   id="svg3125"
   version="1.1"
   inkscape:version="0.48.4 r9939"
   width="499.58139"
   height="464.1431"
   sodipodi:docname="poppet_happy.svg">
  <metadata
     id="metadata3131">
    <rdf:RDF>
      <cc:Work
         rdf:about="">
        <dc:format>image/svg+xml</dc:format>
        <dc:type
           rdf:resource="http://purl.org/dc/dcmitype/StillImage" />
        <dc:title></dc:title>
      </cc:Work>
    </rdf:RDF>
  </metadata>
  <defs
     id="defs3129" />
  <sodipodi:namedview
     pagecolor="#ffffff"
     bordercolor="#666666"
     borderopacity="1"
     objecttolerance="10"
     gridtolerance="10"
     guidetolerance="10"
     inkscape:pageopacity="0"
     inkscape:pageshadow="2"
     inkscape:window-width="1115"
     inkscape:window-height="634"
     id="namedview3127"
     showgrid="false"
     inkscape:zoom="0.4888535"
     inkscape:cx="226.49348"
     inkscape:cy="231.24571"
     inkscape:window-x="115"
     inkscape:window-y="36"
     inkscape:window-maximized="0"
     inkscape:current-layer="svg3125"
     fit-margin-top="0"
     fit-margin-left="0"
     fit-margin-right="0"
     fit-margin-bottom="0" />
  <path
     sodipodi:type="arc"
     style="fill:#b3b3b3;fill-opacity:1;stroke:none"
     id="path3166"
     sodipodi:cx="156.4886"
     sodipodi:cy="260.28012"
     sodipodi:rx="9.2052116"
     sodipodi:ry="115.57655"
     d="m 165.69381,260.28012 a 9.2052116,115.57655 0 1 1 -18.41042,0 9.2052116,115.57655 0 1 1 18.41042,0 z"
     transform="matrix(7.6666668,0,0,1,-770.73786,-3.1026059)" />
  <path
     transform="matrix(7.6666668,0,0,1,-782.73786,-3.1026059)"
     d="m 165.69381,260.28012 a 9.2052116,115.57655 0 1 1 -18.41042,0 9.2052116,115.57655 0 1 1 18.41042,0 z"
     sodipodi:ry="115.57655"
     sodipodi:rx="9.2052116"
     sodipodi:cy="260.28012"
     sodipodi:cx="156.4886"
     id="path3956"
     style="fill:#f2f2f2;fill-opacity:1;stroke:#b3b3b3;stroke-width:1.8057878;stroke-linejoin:round;stroke-miterlimit:4;stroke-dasharray:none"
     sodipodi:type="arc" />
  <path
     style="fill:#f2f2f2;stroke:#b3b3b3;stroke-width:5;stroke-linecap:butt;stroke-linejoin:round;stroke-miterlimit:4;stroke-opacity:1;stroke-dasharray:none"
     d="M 186.60423,82.278501 440.25895,49.54886 438.21335,325.70521 192.74104,389.11889 z"
     id="path3160"
     inkscape:connector-curvature="0" />
  <path
     style="fill:#ececec;stroke:#999999;stroke-width:5;stroke-linejoin:round;stroke-miterlimit:4;stroke-dasharray:none"
     d="M 200.92345,74.096091 2.5,20.910423 6.5912,254.10912 194.78664,393.21009 z"
     id="path3162"
     inkscape:connector-curvature="0"
     sodipodi:nodetypes="ccccc" />
  <path
     transform="matrix(4.1022475,0,0,0.99481352,917.40685,21.046025)"
     d="m -173.87622,317.55701 a 23.524429,127.85017 0 1 1 -47.04886,0 23.524429,127.85017 0 1 1 47.04886,0 z"
     sodipodi:ry="127.85017"
     sodipodi:rx="23.524429"
     sodipodi:cy="317.55701"
     sodipodi:cx="-197.40065"
     id="path3958"
     style="fill:#999999;fill-opacity:1;stroke:none"
     sodipodi:type="arc" />
  <path
     style="fill:#ececec;stroke:#b3b3b3;stroke-width:5;stroke-linecap:butt;stroke-linejoin:round;stroke-miterlimit:4;stroke-opacity:1;stroke-dasharray:none"
     d="M 188.64983,84.324104 438.21335,49.54886 217.28827,2.5 8.6368,25.001629 z"
     id="path3164"
     inkscape:connector-curvature="0" />
  <path
     sodipodi:type="arc"
     style="fill:#ececec;fill-opacity:1;stroke:#999999;stroke-width:2.47507429;stroke-linejoin:round;stroke-miterlimit:4;stroke-dasharray:none"
     id="path3150"
     sodipodi:cx="-197.40065"
     sodipodi:cy="317.55701"
     sodipodi:rx="23.524429"
     sodipodi:ry="127.85017"
     d="m -173.87622,317.55701 a 23.524429,127.85017 0 1 1 -47.04886,0 23.524429,127.85017 0 1 1 47.04886,0 z"
     transform="matrix(4.1022475,0,0,0.99481352,909.31564,15.046025)" />
  <path
     inkscape:connector-curvature="0"
     id="path56"
     style="fill:#221a13;fill-opacity:1;fill-rule:nonzero;stroke:none"
     d="m 250.87775,256.11005 c -0.97078,-1.49297 18.25207,58.41145 94.18881,46.51357 75.08392,-16.44259 71.28231,-79.23892 70.91881,-77.49557 -51.81909,23.21697 -108.39681,33.83363 -165.10762,30.982" />
  <path
     inkscape:connector-curvature="0"
     id="path58"
     style="fill:#ffffff;fill-opacity:1;fill-rule:nonzero;stroke:none"
     d="m 337.6946,263.33739 c 34.09739,-7.26257 55.34229,-20.40987 68.5877,-34.03344 -45.88794,18.96197 -95.20531,28.21624 -144.84587,27.17995 17.28329,7.89494 41.84745,12.44628 76.25817,6.85349" />
  <path
     inkscape:connector-curvature="0"
     id="path60"
     style="fill:#f0431d;fill-opacity:1;fill-rule:nonzero;stroke:none"
     d="m 394.89206,276.9778 c -14.55127,-4.65191 -34.12024,-5.61826 -54.95838,-1.70804 -20.83815,3.91023 -38.72556,11.90517 -50.60047,21.51587 13.7744,6.25352 31.97768,9.56039 55.73335,5.83799 23.4891,-5.14296 39.25522,-14.8241 49.8255,-25.64582" />
  <path
     inkscape:connector-curvature="0"
     id="path62"
     style="fill:#55c5ec;fill-opacity:1;fill-rule:nonzero;stroke:none"
     d="m 215.85312,225.32823 32.59379,-22.13592 -8.79847,38.42113 c -1.91181,8.34191 -10.21798,13.55305 -18.55522,11.64008 -8.33756,-1.91475 -13.54756,-10.22686 -11.63576,-18.56877 0.90691,-3.96089 3.28513,-7.23591 6.39566,-9.35652" />
  <path
     inkscape:connector-curvature="0"
     id="path64"
     style="fill:#55c5ec;fill-opacity:1;fill-rule:nonzero;stroke:none"
     d="m 447.68192,202.5802 -22.1284,-32.61595 38.4011,8.81207 c 8.33723,1.91298 13.54757,10.22686 11.63543,18.56699 -1.91002,8.34157 -10.2162,13.55271 -18.55343,11.63974 -3.95883,-0.90832 -7.23251,-3.28864 -9.3547,-6.40285" />
  <path
     inkscape:connector-curvature="0"
     id="path66"
     style="fill:#221a13;fill-opacity:1;fill-rule:nonzero;stroke:none"
     d="m 267.03892,206.41149 c -2.41241,0.45269 -4.99171,-0.35699 -6.70564,-2.3555 -2.55583,-2.98125 -2.21115,-7.46506 0.7646,-10.01925 l 21.77969,-18.69875 -27.07658,-9.52916 c -3.69929,-1.30163 -5.64603,-5.35545 -4.34486,-9.06046 1.30573,-3.70034 5.35435,-5.65052 9.05464,-4.34355 l 38.68109,13.61172 c 2.39362,0.84083 4.15694,2.89643 4.62526,5.3922 0.46866,2.49756 -0.42949,5.05257 -2.35545,6.70395 l -31.11506,26.70879 c -0.97987,0.8436 -2.12461,1.36801 -3.30769,1.59001" />
  <path
     inkscape:connector-curvature="0"
     id="path68"
     style="fill:#221a13;fill-opacity:1;fill-rule:nonzero;stroke:none"
     d="m 409.39233,179.69925 c -1.18308,0.22201 -2.43828,0.14794 -3.65733,-0.28305 l -38.68288,-13.61138 c -2.39183,-0.84116 -4.15515,-2.89676 -4.62381,-5.39432 -0.46832,-2.49577 0.42983,-5.05078 2.354,-6.70183 l 31.11684,-26.70912 c 2.98365,-2.5612 7.46207,-2.21109 10.01156,0.76583 2.55761,2.98092 2.21293,7.46472 -0.76282,10.0189 l -21.7818,18.69731 27.07869,9.5306 c 3.69929,1.30164 5.64603,5.35546 4.34308,9.06081 -0.87104,2.48357 -2.98135,4.17324 -5.39553,4.62625" />
</svg>
